<svg width="404" height="188" viewBox="8 31 404 188" fill="none" xmlns="http://www.w3.org/2000/svg">
<path d="M24.64 82.32H67.34C73.5 82.32 78.3533 80.92 81.9 78.12C85.54 75.32 87.36 71.4933 87.36 66.64C87.36 61.6933 85.54 57.8667 81.9 55.16C78.3533 52.36 73.5 50.96 67.34 50.96H21.98L30.24 40.6V140H11.76V35H69.02C76.3933 35 82.8333 36.3533 88.34 39.06C93.94 41.6733 98.28 45.36 101.36 50.12C104.533 54.7867 106.12 60.2933 106.12 66.64C106.12 72.8 104.533 78.26 101.36 83.02C98.28 87.6867 93.94 91.3733 88.34 94.08C82.8333 96.6933 76.3933 98 69.02 98H24.64V82.32ZM45.36 90.86H67.06L108.78 140H86.66L45.36 90.86ZM162.842 141.96C153.602 141.96 145.389 140.233 138.202 136.78C131.015 133.233 125.369 128.333 121.262 122.08C117.155 115.827 115.102 108.547 115.102 100.24C115.102 92.0267 117.015 84.84 120.842 78.68C124.762 72.4267 130.129 67.5733 136.942 64.12C143.849 60.5733 151.735 58.8 160.602 58.8C169.469 58.8 177.122 60.8067 183.562 64.82C190.095 68.74 195.135 74.2933 198.682 81.48C202.229 88.6667 204.002 97.1133 204.002 106.82H129.382V92.96H194.902L185.802 98.14C185.522 92.9133 184.262 88.4333 182.022 84.7C179.875 80.9667 176.935 78.12 173.202 76.16C169.562 74.1067 165.222 73.08 160.182 73.08C154.862 73.08 150.195 74.1533 146.182 76.3C142.262 78.4467 139.182 81.48 136.942 85.4C134.702 89.2267 133.582 93.8 133.582 99.12C133.582 105 134.889 110.087 137.502 114.38C140.209 118.673 143.989 121.987 148.842 124.32C153.789 126.56 159.622 127.68 166.342 127.68C172.409 127.68 178.615 126.747 184.962 124.88C191.309 122.92 196.909 120.213 201.762 116.76V129.92C196.909 133.653 190.982 136.593 183.982 138.74C177.075 140.887 170.029 141.96 162.842 141.96ZM258.568 131.88H251.568L284.048 60.76H303.508L264.868 140H244.428L205.788 60.76H225.808L258.568 131.88ZM353.851 141.96C344.238 141.96 335.791 140.233 328.511 136.78C321.324 133.233 315.678 128.333 311.571 122.08C307.558 115.827 305.551 108.593 305.551 100.38C305.551 92.0733 307.558 84.84 311.571 78.68C315.678 72.4267 321.324 67.5733 328.511 64.12C335.791 60.5733 344.238 58.8 353.851 58.8C363.464 58.8 371.864 60.5733 379.051 64.12C386.331 67.5733 391.978 72.4267 395.991 78.68C400.098 84.84 402.151 92.0733 402.151 100.38C402.151 108.593 400.098 115.827 395.991 122.08C391.978 128.333 386.331 133.233 379.051 136.78C371.864 140.233 363.464 141.96 353.851 141.96ZM353.851 127.68C360.011 127.68 365.284 126.56 369.671 124.32C374.151 122.08 377.604 118.953 380.031 114.94C382.458 110.833 383.671 105.98 383.671 100.38C383.671 94.78 382.458 89.9733 380.031 85.96C377.604 81.8533 374.151 78.68 369.671 76.44C365.284 74.2 360.011 73.08 353.851 73.08C347.784 73.08 342.511 74.2 338.031 76.44C333.551 78.68 330.098 81.8533 327.671 85.96C325.244 89.9733 324.031 94.78 324.031 100.38C324.031 105.98 325.244 110.833 327.671 114.94C330.098 118.953 333.551 122.08 338.031 124.32C342.511 126.56 347.784 127.68 353.851 127.68Z" fill="black"/>
<path d="M350.472 182.038C350.391 182.12 350.429 195.294 350.51 195.929C350.969 199.436 353.258 201.909 356.752 202.664C357.411 202.806 359.489 202.806 360.153 202.664C363.042 202.046 365.202 200.125 366.081 197.401C366.573 195.88 366.562 193.845 366.06 192.302C365.299 189.982 363.501 188.182 361.179 187.416C360.186 187.088 359.64 187.006 358.452 187.006C357.076 187.011 356.12 187.197 355.051 187.668C354.813 187.772 354.597 187.865 354.565 187.87C354.532 187.876 354.5 187.4 354.478 186.568C354.457 185.846 354.419 185.168 354.387 185.064C353.906 183.412 352.6 182.263 350.953 182.055C350.715 182.027 350.516 182 350.51 182C350.51 182 350.489 182.016 350.472 182.038ZM359.181 190.868C360.764 191.126 361.946 192.296 362.297 193.954C362.399 194.446 362.367 195.672 362.237 196.142C361.757 197.888 360.305 198.976 358.452 198.971C356.649 198.971 355.332 198.041 354.732 196.35C354.565 195.874 354.565 195.852 354.57 194.884C354.57 193.959 354.581 193.872 354.721 193.462C355.359 191.585 357.162 190.535 359.181 190.868Z" fill="#0B0B0D"/>
<path d="M305.173 187.033C302.802 187.312 301.004 188.603 300.448 190.425C300.016 191.859 300.33 193.631 301.188 194.545C302.052 195.48 303.121 195.918 305.621 196.367C307.818 196.761 308.428 197.111 308.428 197.97C308.428 198.374 308.38 198.511 308.126 198.796C307.305 199.715 305.216 199.644 304.352 198.675C304.114 198.407 303.979 198.095 303.915 197.658L303.877 197.428L301.955 197.439L300.033 197.455L300.016 197.685C299.995 198.002 300.141 198.829 300.303 199.294C301.118 201.668 303.753 203.052 306.944 202.79C310.491 202.5 312.575 200.47 312.408 197.488C312.343 196.427 312.051 195.661 311.452 195.004C310.61 194.08 309.74 193.719 307.052 193.188C304.649 192.712 304.163 192.455 304.152 191.64C304.147 190.677 305.205 190.064 306.549 190.256C307.581 190.403 308.121 190.83 308.283 191.634L308.353 191.984L310.226 192.001C311.846 192.012 312.105 192.001 312.132 191.93C312.176 191.82 312.062 190.967 311.954 190.589C311.447 188.789 309.886 187.509 307.71 187.11C307.165 187.011 305.74 186.968 305.173 187.033Z" fill="#0B0B0D"/>
<path d="M321.63 187.011C321.543 187.022 321.284 187.061 321.063 187.093C316.992 187.673 314.27 191.492 314.751 195.94C315.248 200.568 319.508 203.627 324.086 202.647C326.656 202.1 328.919 200.054 329.669 197.603L329.707 197.483H327.607H325.501L325.306 197.751C324.156 199.332 321.662 199.682 320.096 198.478C319.459 197.992 318.795 196.821 318.795 196.192V196.06H324.351C328.557 196.06 329.923 196.044 329.95 195.995C329.971 195.962 329.998 195.562 330.015 195.108C330.128 191.104 327.709 187.914 323.973 187.143C323.438 187.033 322.034 186.951 321.63 187.011ZM323.19 190.54C323.94 190.677 324.745 191.158 325.22 191.755C325.49 192.088 325.89 192.838 325.954 193.117L325.987 193.27H322.439H318.892L318.925 193.09C318.989 192.734 319.432 191.93 319.756 191.574C320.561 190.688 321.873 190.288 323.19 190.54Z" fill="#0B0B0D"/>
<path d="M375.811 187.017C372.215 187.362 369.537 189.681 368.781 193.106C368.614 193.877 368.598 195.874 368.754 196.58C369.558 200.164 372.237 202.489 375.914 202.79C380.471 203.162 384.185 200.103 384.569 195.661C385.011 190.513 380.968 186.519 375.811 187.017ZM377.728 190.961C378.424 191.147 378.813 191.383 379.375 191.957C380.212 192.8 380.525 193.615 380.525 194.911C380.525 197.308 378.948 198.965 376.648 198.982C374.218 198.998 372.588 197.231 372.696 194.693C372.755 193.369 373.198 192.422 374.11 191.667C375.055 190.89 376.459 190.617 377.728 190.961Z" fill="#0B0B0D"/>
<path d="M339.312 187.307C336.58 187.575 334.221 189.216 333.049 191.656C332.029 193.784 332.045 196.646 333.087 198.768C334.431 201.498 337.093 203.085 340.311 203.079C344.344 203.074 347.481 200.508 348.162 196.668C348.356 195.573 348.296 193.998 348.027 192.997C346.984 189.183 343.48 186.896 339.312 187.307ZM341.391 191.213C343.194 191.689 344.333 193.412 344.209 195.48C344.101 197.231 343.178 198.5 341.591 199.08C341.099 199.261 339.809 199.288 339.204 199.124C337.298 198.626 336.175 196.832 336.397 194.643C336.58 192.865 337.698 191.563 339.366 191.186C339.911 191.065 340.867 191.076 341.391 191.213Z" fill="#0B0B0D"/>
<path d="M385.206 187.651C385.206 187.695 385.276 187.827 385.357 187.941C385.519 188.166 386.086 189.008 387.058 190.453C387.673 191.372 387.879 191.673 389.298 193.779C389.779 194.49 390.173 195.103 390.173 195.136C390.173 195.19 389.881 195.634 388.499 197.658C388.159 198.161 387.452 199.206 386.934 199.972C386.415 200.743 385.832 201.597 385.643 201.876C385.454 202.149 385.265 202.434 385.216 202.5L385.141 202.625H387.344L389.552 202.62L390.146 201.734C390.475 201.247 391.075 200.344 391.491 199.726C391.901 199.108 392.279 198.561 392.328 198.506C392.413 198.413 392.467 198.484 393.364 199.808C393.882 200.579 394.519 201.526 394.784 201.914L395.265 202.625H397.451C399.174 202.625 399.627 202.609 399.606 202.554C399.595 202.521 399.282 202.046 398.909 201.504C398.542 200.962 398.045 200.235 397.813 199.89C397.581 199.545 397.311 199.151 397.219 199.015C397.127 198.878 396.868 198.495 396.641 198.167C396.42 197.833 396.048 197.291 395.826 196.963C395.599 196.629 395.232 196.082 395.005 195.748L394.595 195.13L395.664 193.544C396.252 192.668 397.381 190.994 398.18 189.818C398.974 188.642 399.622 187.657 399.622 187.63C399.622 187.597 398.747 187.586 397.478 187.591L395.329 187.608L394.617 188.647C394.222 189.216 393.699 189.993 393.445 190.371C392.635 191.574 392.457 191.82 392.397 191.82C392.365 191.82 391.696 190.874 390.913 189.714L389.487 187.608L387.344 187.591C385.567 187.58 385.206 187.591 385.206 187.651Z" fill="#0B0B0D"/>
<path d="M344.258 203.129C344.247 203.167 344.209 203.424 344.177 203.698C344.063 204.65 343.772 205.301 343.156 205.968C341.456 207.812 338.194 207.489 336.953 205.355L336.861 205.197H334.712C333.314 205.197 332.563 205.213 332.563 205.251C332.563 205.388 332.914 206.313 333.135 206.756C334.744 209.995 338.47 211.631 342.287 210.777C345.678 210.017 348.275 206.86 348.275 203.484V203.063H346.277C344.722 203.063 344.274 203.079 344.258 203.129Z" fill="#0B0B0D"/>
<path d="M408.054 196.5H402.006V202.628H408.054V196.5Z" fill="#FF5047"/>
<path d="M133.916 196.963H128.326V194.203H133.916C134.971 194.203 135.82 193.992 136.465 193.57C137.121 193.148 137.596 192.562 137.889 191.812C138.193 191.062 138.346 190.207 138.346 189.246C138.346 188.367 138.193 187.541 137.889 186.768C137.596 185.994 137.121 185.373 136.465 184.904C135.82 184.424 134.971 184.184 133.916 184.184H128.994V207H125.76V181.406H133.916C135.568 181.406 136.963 181.74 138.1 182.408C139.236 183.076 140.098 184.002 140.684 185.186C141.281 186.357 141.58 187.699 141.58 189.211C141.58 190.852 141.281 192.252 140.684 193.412C140.098 194.572 139.236 195.457 138.1 196.066C136.963 196.664 135.568 196.963 133.916 196.963ZM144.445 198.404V196.594C144.445 195.117 144.633 193.822 145.008 192.709C145.383 191.584 145.904 190.646 146.572 189.896C147.24 189.146 148.02 188.584 148.91 188.209C149.801 187.822 150.756 187.629 151.775 187.629C152.818 187.629 153.785 187.822 154.676 188.209C155.566 188.584 156.346 189.146 157.014 189.896C157.693 190.646 158.221 191.584 158.596 192.709C158.971 193.822 159.158 195.117 159.158 196.594V198.404C159.158 199.881 158.971 201.182 158.596 202.307C158.221 203.42 157.699 204.352 157.031 205.102C156.363 205.852 155.584 206.414 154.693 206.789C153.803 207.164 152.842 207.352 151.811 207.352C150.779 207.352 149.818 207.164 148.928 206.789C148.037 206.414 147.252 205.852 146.572 205.102C145.904 204.352 145.383 203.42 145.008 202.307C144.633 201.182 144.445 199.881 144.445 198.404ZM147.557 196.594V198.404C147.557 199.447 147.662 200.361 147.873 201.146C148.084 201.932 148.383 202.588 148.77 203.115C149.156 203.643 149.607 204.041 150.123 204.311C150.639 204.568 151.201 204.697 151.811 204.697C152.514 204.697 153.129 204.568 153.656 204.311C154.195 204.041 154.641 203.643 154.992 203.115C155.344 202.588 155.607 201.932 155.783 201.146C155.959 200.361 156.047 199.447 156.047 198.404V196.594C156.047 195.551 155.941 194.643 155.73 193.869C155.52 193.084 155.221 192.428 154.834 191.9C154.447 191.361 153.99 190.963 153.463 190.705C152.947 190.436 152.385 190.301 151.775 190.301C151.178 190.301 150.621 190.436 150.105 190.705C149.59 190.963 149.139 191.361 148.752 191.9C148.377 192.428 148.084 193.084 147.873 193.869C147.662 194.643 147.557 195.551 147.557 196.594ZM167.068 203.625L171.27 187.98H173.291L173.062 191.092L168.844 207H166.893L167.068 203.625ZM164.783 187.98L168.316 203.801L168.404 207H166.348L161.707 187.98H164.783ZM176.895 203.678L180.234 187.98H183.293L178.652 207H176.631L176.895 203.678ZM173.73 187.98L177.826 203.361L178.107 207H176.174L171.814 191.057L171.586 187.98H173.73ZM193.383 207.352C192.246 207.352 191.221 207.182 190.307 206.842C189.393 206.502 188.613 205.986 187.969 205.295C187.324 204.592 186.832 203.707 186.492 202.641C186.152 201.574 185.982 200.314 185.982 198.861V196.717C185.982 195.041 186.176 193.623 186.562 192.463C186.961 191.303 187.494 190.371 188.162 189.668C188.83 188.953 189.586 188.438 190.43 188.121C191.273 187.793 192.141 187.629 193.031 187.629C194.227 187.629 195.246 187.822 196.09 188.209C196.934 188.596 197.619 189.17 198.146 189.932C198.674 190.693 199.061 191.631 199.307 192.744C199.564 193.857 199.693 195.141 199.693 196.594V198.404H187.811V195.75H196.582V195.311C196.535 194.326 196.4 193.459 196.178 192.709C195.967 191.959 195.615 191.373 195.123 190.951C194.631 190.518 193.934 190.301 193.031 190.301C192.457 190.301 191.924 190.4 191.432 190.6C190.951 190.787 190.535 191.121 190.184 191.602C189.844 192.07 189.574 192.721 189.375 193.553C189.188 194.385 189.094 195.439 189.094 196.717V198.861C189.094 199.881 189.188 200.76 189.375 201.498C189.574 202.225 189.861 202.828 190.236 203.309C190.623 203.777 191.092 204.129 191.643 204.363C192.205 204.586 192.844 204.697 193.559 204.697C194.602 204.697 195.463 204.498 196.143 204.1C196.822 203.689 197.414 203.168 197.918 202.535L199.553 204.486C199.213 204.967 198.768 205.43 198.217 205.875C197.678 206.309 197.01 206.666 196.213 206.947C195.428 207.217 194.484 207.352 193.383 207.352ZM206.566 190.969V207H203.455V187.98H206.461L206.566 190.969ZM211.295 187.875L211.312 190.898C211.055 190.84 210.82 190.805 210.609 190.793C210.41 190.77 210.176 190.758 209.906 190.758C209.32 190.758 208.805 190.875 208.359 191.109C207.926 191.344 207.551 191.672 207.234 192.094C206.918 192.516 206.666 193.02 206.479 193.605C206.291 194.18 206.162 194.812 206.092 195.504L205.283 196.031C205.283 194.883 205.371 193.805 205.547 192.797C205.734 191.789 206.021 190.898 206.408 190.125C206.795 189.34 207.287 188.73 207.885 188.297C208.494 187.852 209.221 187.629 210.064 187.629C210.252 187.629 210.48 187.658 210.75 187.717C211.031 187.764 211.213 187.816 211.295 187.875ZM220.91 207.352C219.773 207.352 218.748 207.182 217.834 206.842C216.92 206.502 216.141 205.986 215.496 205.295C214.852 204.592 214.359 203.707 214.02 202.641C213.68 201.574 213.51 200.314 213.51 198.861V196.717C213.51 195.041 213.703 193.623 214.09 192.463C214.488 191.303 215.021 190.371 215.689 189.668C216.357 188.953 217.113 188.438 217.957 188.121C218.801 187.793 219.668 187.629 220.559 187.629C221.754 187.629 222.773 187.822 223.617 188.209C224.461 188.596 225.146 189.17 225.674 189.932C226.201 190.693 226.588 191.631 226.834 192.744C227.092 193.857 227.221 195.141 227.221 196.594V198.404H215.338V195.75H224.109V195.311C224.062 194.326 223.928 193.459 223.705 192.709C223.494 191.959 223.143 191.373 222.65 190.951C222.158 190.518 221.461 190.301 220.559 190.301C219.984 190.301 219.451 190.4 218.959 190.6C218.479 190.787 218.062 191.121 217.711 191.602C217.371 192.07 217.102 192.721 216.902 193.553C216.715 194.385 216.621 195.439 216.621 196.717V198.861C216.621 199.881 216.715 200.76 216.902 201.498C217.102 202.225 217.389 202.828 217.764 203.309C218.15 203.777 218.619 204.129 219.17 204.363C219.732 204.586 220.371 204.697 221.086 204.697C222.129 204.697 222.99 204.498 223.67 204.1C224.35 203.689 224.941 203.168 225.445 202.535L227.08 204.486C226.74 204.967 226.295 205.43 225.744 205.875C225.205 206.309 224.537 206.666 223.74 206.947C222.955 207.217 222.012 207.352 220.91 207.352ZM240.949 203.309V180H244.043V207H241.213L240.949 203.309ZM230.314 198.404V196.629C230.314 195.059 230.467 193.711 230.771 192.586C231.076 191.449 231.51 190.518 232.072 189.791C232.635 189.053 233.309 188.508 234.094 188.156C234.879 187.805 235.746 187.629 236.695 187.629C237.68 187.629 238.523 187.828 239.227 188.227C239.941 188.625 240.539 189.205 241.02 189.967C241.5 190.717 241.875 191.631 242.145 192.709C242.426 193.775 242.613 194.982 242.707 196.33V198.703C242.602 200.039 242.408 201.24 242.127 202.307C241.857 203.373 241.482 204.281 241.002 205.031C240.521 205.781 239.924 206.355 239.209 206.754C238.494 207.152 237.645 207.352 236.66 207.352C235.723 207.352 234.867 207.17 234.094 206.807C233.32 206.432 232.646 205.875 232.072 205.137C231.51 204.387 231.076 203.455 230.771 202.342C230.467 201.217 230.314 199.904 230.314 198.404ZM233.426 196.629V198.404C233.426 199.459 233.502 200.379 233.654 201.164C233.807 201.938 234.047 202.582 234.375 203.098C234.703 203.602 235.119 203.977 235.623 204.223C236.139 204.469 236.754 204.592 237.469 204.592C238.336 204.592 239.045 204.381 239.596 203.959C240.146 203.537 240.586 202.98 240.914 202.289C241.254 201.586 241.523 200.83 241.723 200.021V195.029C241.605 194.432 241.436 193.857 241.213 193.307C240.99 192.744 240.709 192.246 240.369 191.812C240.041 191.367 239.637 191.016 239.156 190.758C238.688 190.5 238.137 190.371 237.504 190.371C236.789 190.371 236.168 190.5 235.641 190.758C235.125 191.016 234.703 191.402 234.375 191.918C234.059 192.434 233.818 193.084 233.654 193.869C233.502 194.654 233.426 195.574 233.426 196.629ZM257.104 180H260.215V203.309L259.951 207H257.104V180ZM270.885 196.629V198.404C270.885 199.904 270.744 201.217 270.463 202.342C270.193 203.455 269.789 204.387 269.25 205.137C268.711 205.875 268.055 206.432 267.281 206.807C266.508 207.17 265.623 207.352 264.627 207.352C263.643 207.352 262.793 207.152 262.078 206.754C261.363 206.355 260.766 205.781 260.285 205.031C259.805 204.281 259.424 203.373 259.143 202.307C258.873 201.24 258.686 200.039 258.58 198.703V196.33C258.686 194.982 258.873 193.775 259.143 192.709C259.412 191.631 259.787 190.717 260.268 189.967C260.748 189.205 261.346 188.625 262.061 188.227C262.775 187.828 263.625 187.629 264.609 187.629C265.617 187.629 266.508 187.805 267.281 188.156C268.066 188.508 268.723 189.053 269.25 189.791C269.789 190.518 270.193 191.449 270.463 192.586C270.744 193.711 270.885 195.059 270.885 196.629ZM267.773 198.404V196.629C267.773 195.574 267.703 194.654 267.562 193.869C267.434 193.084 267.217 192.434 266.912 191.918C266.607 191.402 266.197 191.016 265.682 190.758C265.178 190.5 264.551 190.371 263.801 190.371C263.168 190.371 262.611 190.5 262.131 190.758C261.662 191.016 261.258 191.367 260.918 191.812C260.578 192.246 260.297 192.744 260.074 193.307C259.852 193.857 259.688 194.432 259.582 195.029V200.021C259.734 200.783 259.975 201.516 260.303 202.219C260.643 202.91 261.1 203.479 261.674 203.924C262.248 204.369 262.963 204.592 263.818 204.592C264.533 204.592 265.137 204.469 265.629 204.223C266.133 203.977 266.543 203.602 266.859 203.098C267.176 202.582 267.404 201.938 267.545 201.164C267.697 200.379 267.773 199.459 267.773 198.404ZM279.094 205.031L283.33 187.98H286.635L280.359 209.936C280.207 210.404 280.002 210.908 279.744 211.447C279.498 211.998 279.182 212.52 278.795 213.012C278.408 213.504 277.945 213.902 277.406 214.207C276.867 214.523 276.234 214.682 275.508 214.682C275.285 214.682 274.998 214.646 274.646 214.576C274.307 214.506 274.061 214.447 273.908 214.4V211.764C273.979 211.775 274.09 211.787 274.242 211.799C274.395 211.822 274.506 211.834 274.576 211.834C275.186 211.834 275.701 211.734 276.123 211.535C276.557 211.348 276.926 211.025 277.23 210.568C277.535 210.123 277.793 209.508 278.004 208.723L279.094 205.031ZM276.352 187.98L280.131 202.746L280.939 206.174L278.725 207.369L272.959 187.98H276.352Z" fill="black"/>
</svg>
